#!OML:ASF H:\Not Pregnant\Project 1\Capture day 1\Session 1\non-pregnant.ASF
:FULLY-SPECIFIED
:DEGREES
492
root 8.31607 15.704 39.1225 43.0151 -78.0386 -29.3494
lowerback -6.53599 1.91931 4.57918
upperback -8.33664 2.15173 0.387593
thorax -4.86252 0.713305 -2.09496
lowerneck 24.1716 -9.5214 -31.3451
upperneck -12.2972 -20.1997 42.1783
head 1.16953 -13.1734 21.9166
rclavicle -1.83876e-015 -4.77083e-015
rhumerus -34.3551 -11.116 -66.8991
rradius 31.2503
rwrist 11.6166
rhand -20.7706 -9.73774
rfingers 7.12502
rthumb 5.59586 -39.6439
lclavicle -1.83876e-015 -4.77083e-015
lhumerus -43.2338 10.4951 67.7965
lradius 43.1025
lwrist 45.7368
lhand -26.8558 -13.4452
lfingers 7.12502
lthumb -0.280853 16.5344
rfemur -28.1354 0.546461 24.1938
rtibia 30.8076
rfoot -16.2632 10.0998
rtoes -13.5327
lfemur -22.7373 4.36291 -16.6811
ltibia 30.7835
lfoot -17.8123 10.4658
ltoes -28.1207
493
root 8.30511 15.7075 39.1237 44.2788 -78.4615 -30.5965
lowerback -6.6408 1.90122 4.54148
upperback -8.35966 2.1185 0.395515
thorax -4.83191 0.697242 -2.06379
lowerneck 23.9546 -9.44997 -31.333
upperneck -11.9971 -20.1225 42.1968
head 1.25274 -13.124 21.9146
rclavicle 8.94531e-016 -3.18055e-015
rhumerus -34.3832 -9.94155 -67.3669
rradius 31.1693
rwrist 12.7402
rhand -20.7818 -9.36194
rfingers 7.12502
rthumb 5.585 -39.2683
lclavicle 8.94531e-016 -3.18055e-015
lhumerus -43.3528 10.0403 68.4056
lradius 42.9397
lwrist 45.5371
lhand -26.3208 -13.1731
lfingers 7.12502
lthumb 0.235877 16.8065
rfemur -28.1204 0.00193412 24.3305
rtibia 30.6444
rfoot -16.3554 11.1956
rtoes -12.9062
lfemur -22.5646 4.72931 -16.739
ltibia 30.6265
lfoot -17.7974 10.5519
ltoes -28.1266
494
root 8.294 15.7106 39.124 45.6459 -78.8489 -31.9554
lowerback -6.74509 1.88127 4.50788
upperback -8.37581 2.08321 0.41209
thorax -4.79458 0.680593 -2.02599
lowerneck 23.7469 -9.37934 -31.3254
upperneck -11.7116 -20.0492 42.2283
head 1.33535 -13.0788 21.923
rclavicle -1.59028e-015 4.37326e-015
rhumerus -34.4397 -8.99113 -67.7784
rradius 31.0742
rwrist 13.8427
rhand -20.7109 -8.95137
rfingers 7.12502
rthumb 5.65346 -38.856
lclavicle -1.59028e-015 4.37326e-015
lhumerus -43.4461 9.56734 69.062
lradius 42.7541
lwrist 45.2529
lhand -25.7342 -12.8871
lfingers 7.12502
lthumb 0.802463 17.0911
rfemur -28.0905 -0.487109 24.476
rtibia 30.4749
rfoot -16.4235 12.2386
rtoes -12.2949
lfemur -22.4002 5.10998 -16.7719
ltibia 30.491
lfoot -17.798 10.6118
ltoes -28.1367
495
root 8.2828 15.7134 39.1237 47.1079 -79.2128 -33.4119
lowerback -6.84884 1.86245 4.47401
upperback -8.39008 2.04968 0.431451
thorax -4.75551 0.665038 -1.98518
lowerneck 23.5506 -9.30938 -31.3185
upperneck -11.4389 -19.979 42.2686
head 1.41564 -13.0373 21.9389
rclavicle -1.09332e-014 -1.07344e-014
rhumerus -34.5292 -8.19907 -68.1654
rradius 30.9777
rwrist 14.8098
rhand -20.594 -8.52187
rfingers 7.12502
rthumb 5.76633 -38.4234
lclavicle -1.09332e-014 -1.07344e-014
lhumerus -43.5191 9.08869 69.7541
lradius 42.544
lwrist 44.8664
lhand -25.1719 -12.707
lfingers 7.12502
lthumb 1.34558 17.2685
rfemur -28.0475 -0.87798 24.6092
rtibia 30.2965
rfoot -16.4554 13.1892
rtoes -11.6821
lfemur -22.2465 5.50095 -16.7923
ltibia 30.3754
lfoot -17.8077 10.6582
ltoes -28.165
496
root 8.27142 15.716 39.1229 48.7053 -79.5411 -35.0122
lowerback -6.94953 1.84702 4.45728
upperback -8.40133 2.0206 0.456603
thorax -4.71441 0.651107 -1.9479
lowerneck 23.3703 -9.24226 -31.3128
upperneck -11.1798 -19.9163 42.317
head 1.49456 -13.0018 21.9612
rclavicle -4.49253e-014 -3.97569e-015
rhumerus -34.6528 -7.59349 -68.5191
rradius 30.8753
rwrist 15.6391
rhand -20.448 -8.08764
rfingers 7.12502
rthumb 5.90729 -37.9853
lclavicle -4.49253e-014 -3.97569e-015
lhumerus -43.569 8.60168 70.4862
lradius 42.307
lwrist 44.3867
lhand -24.6197 -12.5752
lfingers 7.12502
lthumb 1.87884 17.3963
rfemur -27.9823 -1.18679 24.7496
rtibia 30.1047
rfoot -16.4591 14.0421
rtoes -11.1015
lfemur -22.0987 5.89262 -16.7847
ltibia 30.2811
lfoot -17.8268 10.7026
ltoes -28.1993
497
root 8.25995 15.7184 39.1217 50.4529 -79.8439 -36.7672
lowerback -7.0478 1.84219 4.46243
upperback -8.41238 2.00502 0.478162
thorax -4.67296 0.642664 -1.92624
lowerneck 23.2113 -9.18727 -31.2912
upperneck -10.9417 -19.8685 42.368
head 1.569 -12.9763 21.9812
rclavicle 5.56597e-015 -1.43125e-014
rhumerus -34.819 -7.06374 -68.8884
rradius 30.7952
rwrist 16.1844
rhand -20.3106 -7.70969
rfingers 7.12502
rthumb 6.03996 -37.6036
lclavicle 5.56597e-015 -1.43125e-014
lhumerus -43.5946 8.09938 71.2519
lradius 42.042
lwrist 43.8123
lhand -24.0827 -12.486
lfingers 7.12502
lthumb 2.39753 17.4803
rfemur -27.9032 -1.4358 24.8963
rtibia 29.9029
rfoot -16.4375 14.8288
rtoes -10.5279
lfemur -21.9574 6.27554 -16.7551
ltibia 30.2058
lfoot -17.8567 10.7571
ltoes -28.2155
498
root 8.24865 15.7205 39.1206 52.3536 -80.1124 -38.6834
lowerback -7.13725 1.84924 4.49844
upperback -8.423 2.00477 0.498404
thorax -4.63424 0.640199 -1.9229
lowerneck 23.0734 -9.13424 -31.2754
upperneck -10.7183 -19.8303 42.4313
head 1.64315 -12.9589 22.0114
rclavicle 8.59744e-015 -4.77083e-015
rhumerus -35.0156 -6.6783 -69.2337
rradius 30.7084
rwrist 16.5202
rhand -20.2105 -7.39328
rfingers 7.12502
rthumb 6.13663 -37.2844
lclavicle 8.59744e-015 -4.77083e-015
lhumerus -43.5932 7.56877 72.0639
lradius 41.7485
lwrist 43.1918
lhand -23.5345 -12.4326
lfingers 7.12502
lthumb 2.92688 17.5271
rfemur -27.81 -1.67233 25.0649
rtibia 29.6935
rfoot -16.4006 15.5859
rtoes -9.96035
lfemur -21.8196 6.63472 -16.6966
ltibia 30.149
lfoot -17.8981 10.8271
ltoes -28.1825
499
root 8.23755 15.7221 39.1193 54.3854 -80.3571 -40.7367
lowerback -7.21795 1.8694 4.55122
upperback -8.43399 2.0219 0.515886
thorax -4.5992 0.645426 -1.93138
lowerneck 22.9581 -9.08414 -31.2637
upperneck -10.5115 -19.8019 42.5031
head 1.7154 -12.9494 22.0492
rclavicle 4.10987e-014 -2.18663e-014
rhumerus -35.2418 -6.40358 -69.571
rradius 30.6185
rwrist 16.633
rhand -20.1544 -7.17828
rfingers 7.12502
rthumb 6.19078 -37.0678
lclavicle 4.10987e-014 -2.18663e-014
lhumerus -43.5679 7.01048 72.922
lradius 41.4323
lwrist 42.5397
lhand -23.0037 -12.4394
lfingers 7.12502
lthumb 3.43949 17.5126
rfemur -27.7167 -2.00304 25.2684
rtibia 29.4852
rfoot -16.3634 16.4277
rtoes -9.36011
lfemur -21.6825 6.96591 -16.6209
ltibia 30.1057
lfoot -17.947 10.9239
ltoes -28.104
500
root 8.2265 15.7234 39.1178 56.5362 -80.5769 -42.9149
lowerback -7.2926 1.90006 4.61759
upperback -8.44496 2.05284 0.531752
thorax -4.56625 0.656802 -1.94873
lowerneck 22.8594 -9.03511 -31.2583
upperneck -10.3153 -19.7804 42.5805
head 1.78685 -12.9453 22.093
rclavicle 3.57315e-014 7.15625e-015
rhumerus -35.4928 -6.23485 -69.8974
rradius 30.5228
rwrist 16.5496
rhand -20.1191 -7.04524
rfingers 7.12502
rthumb 6.22486 -36.9338
lclavicle 3.57315e-014 7.15625e-015
lhumerus -43.5235 6.42344 73.8231
lradius 41.0974
lwrist 41.8884
lhand -22.4662 -12.4554
lfingers 7.12502
lthumb 3.95857 17.4876
rfemur -27.6248 -2.4224 25.5028
rtibia 29.284
rfoot -16.3188 17.3592
rtoes -8.68905
lfemur -21.5418 7.25892 -16.5275
ltibia 30.0713
lfoot -18.0051 11.0432
ltoes -27.9511
501
root 8.21539 15.7245 39.1166 58.7261 -80.7824 -45.1355
lowerback -7.36544 1.93859 4.68589
upperback -8.4557 2.09413 0.540918
thorax -4.53304 0.673141 -1.97371
lowerneck 22.7776 -8.98678 -31.2601
upperneck -10.1291 -19.7655 42.6607
head 1.85711 -12.9462 22.1417
rclavicle 2.39536e-014 -1.19271e-015
rhumerus -35.7629 -6.19 -70.2055
rradius 30.4085
rwrist 16.3343
rhand -20.0952 -6.97421
rfingers 7.12502
rthumb 6.24791 -36.8621
lclavicle 2.39536e-014 -1.19271e-015
lhumerus -43.4622 5.81577 74.7602
lradius 40.7458
lwrist 41.2464
lhand -21.9493 -12.509
lfingers 7.12502
lthumb 4.45774 17.4241
rfemur -27.5451 -2.99904 25.7611
rtibia 29.0988
rfoot -16.2584 18.458
rtoes -7.85001
lfemur -21.3944 7.52016 -16.438
ltibia 30.0367
lfoot -18.0655 11.1805
ltoes -27.7585
502
root 8.20395 15.7254 39.1154 60.8859 -80.97 -47.3329
lowerback -7.43812 1.97714 4.75075
upperback -8.46436 2.1355 0.545047
thorax -4.49755 0.68976 -2.00191
lowerneck 22.7098 -8.94031 -31.2649
upperneck -9.9488 -19.7558 42.7338
head 1.92473 -12.9497 22.1875
rclavicle -7.40473e-015 1.19271e-014
rhumerus -36.0462 -6.27923 -70.4884
rradius 30.2661
rwrist 16.061
rhand -20.0843 -6.95832
rfingers 7.12502
rthumb 6.25841 -36.8459
lclavicle -7.40473e-015 1.19271e-014
lhumerus -43.3907 5.20619 75.7185
lradius 40.3821
lwrist 40.6131
lhand -21.4265 -12.5432
lfingers 7.12502
lthumb 4.96256 17.3787
rfemur -27.4713 -3.68525 26.0289
rtibia 28.9348
rfoot -16.1768 19.6604
rtoes -6.87617
lfemur -21.2338 7.75557 -16.3544
ltibia 29.995
lfoot -18.1308 11.3164
ltoes -27.5124
503
root 8.19202 15.7263 39.114 63.0061 -81.1612 -49.4927
lowerback -7.5164 2.01627 4.79022
upperback -8.47307 2.17803 0.540424
thorax -4.45917 0.708176 -2.02477
lowerneck 22.6334 -8.86652 -31.4544
upperneck -9.57787 -19.837 42.4324
head 2.03554 -12.9789 22.703
rclavicle -1.16289e-014 -1.51076e-014
rhumerus -36.3391 -6.55598 -70.7178
rradius 30.0762
rwrist 15.8332
rhand -20.0884 -6.96697
rfingers 7.12502
rthumb 6.25448 -36.8546
lclavicle -1.16289e-014 -1.51076e-014
lhumerus -43.3148 4.60854 76.6876
lradius 40.0104
lwrist 39.9856
lhand -20.8926 -12.5515
lfingers 7.12502
lthumb 5.478 17.3577
rfemur -27.4105 -4.43286 26.2788
rtibia 28.7992
rfoot -16.0633 20.9292
rtoes -5.76063
lfemur -21.0598 7.98002 -16.2963
ltibia 29.9393
lfoot -18.1937 11.4502
ltoes -27.2668
504
root 8.17935 15.7272 39.1118 65.1733 -81.367 -51.6997
lowerback -7.60514 2.06041 4.7954
upperback -8.48198 2.22766 0.5268
thorax -4.41519 0.731866 -2.03719
lowerneck 22.588 -8.836 -31.4544
upperneck -9.39705 -19.8499 42.4675
head 2.10261 -12.9918 22.724
rclavicle -2.56929e-014 -3.97569e-015
rhumerus -36.6481 -6.99885 -70.9066
rradius 29.8453
rwrist 15.6756
rhand -20.1449 -7.04506
rfingers 7.12502
rthumb 6.19997 -36.9343
lclavicle -2.56929e-014 -3.97569e-015
lhumerus -43.2354 4.02298 77.6604
lradius 39.634
lwrist 39.3615
lhand -20.3477 -12.5186
lfingers 7.12502
lthumb 6.00411 17.3763
rfemur -27.3625 -5.1802 26.4998
rtibia 28.6935
rfoot -15.9127 22.2083
rtoes -4.53465
lfemur -20.8727 8.23681 -16.2671
ltibia 29.8679
lfoot -18.2592 11.5572
ltoes -27.0299
